<svg width="65" height="65" viewBox="0 0 65 65" fill="none" xmlns="http://www.w3.org/2000/svg">
<rect x="0.601562" y="0.801758" width="63.8594" height="63.8594" fill="#31871D"/>
<path fill-rule="evenodd" clip-rule="evenodd" d="M21.3516 49.8761V16.4588C22.7573 16.1838 24.1631 15.9699 25.5688 15.8171C26.9899 15.6643 28.4873 15.5879 30.0611 15.5879C34.5382 15.5879 37.9227 16.52 40.2147 18.3841C42.5219 20.233 43.6756 23.1591 43.6756 27.1625C43.6756 30.9213 42.5296 33.7939 40.2376 35.7803C37.9609 37.7667 34.393 38.7599 29.534 38.7599C28.7394 38.7599 27.9907 38.7446 27.2878 38.7141C26.6002 38.6683 25.8591 38.6148 25.0646 38.5536V49.8761H21.3516ZM29.6027 35.7345C33.2546 35.7345 35.8981 35.0393 37.533 33.6488C39.168 32.243 39.9855 30.1038 39.9855 27.2312C39.9855 24.2211 39.1833 22.036 37.5789 20.6761C35.9898 19.3009 33.5679 18.6133 30.3133 18.6133C29.3201 18.6133 28.3956 18.6515 27.5399 18.7279C26.6995 18.789 25.8744 18.8884 25.0646 19.0259V35.4595C25.8133 35.5664 26.5467 35.6428 27.2649 35.6887C27.9983 35.7192 28.7776 35.7345 29.6027 35.7345Z" fill="white"/>
</svg>
