<svg width="146" height="146" viewBox="0 0 146 146" fill="none" xmlns="http://www.w3.org/2000/svg">
<g id="Group 31">
<path id="Rectangle 1" d="M0.410156 0.979492H145.303V145.869H0.410156V0.979492Z" fill="white"/>
<g id="PA">
<path d="M31.0898 98.9432V47.9058H50.2289C54.1497 47.9058 57.4393 48.6368 60.0975 50.0988C62.7723 51.5608 64.7909 53.5711 66.1532 56.1296C67.5321 58.6715 68.2216 61.5623 68.2216 64.802C68.2216 68.0749 67.5321 70.9823 66.1532 73.5242C64.7742 76.0661 62.7391 78.068 60.0476 79.5301C57.3562 80.9754 54.0418 81.6981 50.1043 81.6981H37.4197V74.0974H48.8583C51.151 74.0974 53.0283 73.6986 54.4903 72.9012C55.9523 72.1037 57.0322 71.0072 57.73 69.6116C58.4444 68.2161 58.8016 66.6129 58.8016 64.802C58.8016 62.9911 58.4444 61.3961 57.73 60.0172C57.0322 58.6383 55.944 57.5667 54.4654 56.8024C53.0034 56.0216 51.1177 55.6312 48.8084 55.6312H40.3354V98.9432H31.0898Z" fill="#E2090B"/>
<path d="M77.1183 98.9432H67.2497L85.2175 47.9058H96.6311L114.624 98.9432H104.755L91.1237 58.3724H90.7249L77.1183 98.9432ZM77.4422 78.932H104.357V86.3583H77.4422V78.932Z" fill="#E2090B"/>
</g>
</g>
</svg>
