<svg width="30" height="30" viewBox="0 0 30 30" fill="none" xmlns="http://www.w3.org/2000/svg">
<g id="Icons">
<g id="Color-">
<path id="Facebook" fill-rule="evenodd" clip-rule="evenodd" d="M15.7792 29.0828H1.96673C1.08738 29.0828 0.375 28.37 0.375 27.491V1.83488C0.375 0.955656 1.08749 0.243164 1.96673 0.243164H27.623C28.502 0.243164 29.2147 0.955656 29.2147 1.83488V27.491C29.2147 28.3701 28.5019 29.0828 27.623 29.0828H20.2739V17.9145H24.0226L24.5839 13.562H20.2739V10.7832C20.2739 9.5231 20.6239 8.66435 22.4309 8.66435L24.7357 8.66334V4.77045C24.3371 4.7174 22.9689 4.5989 21.3772 4.5989C18.0542 4.5989 15.7792 6.62726 15.7792 10.3522V13.562H12.0209V17.9145H15.7792V29.0828Z" fill="#4460A0"/>
</g>
</g>
</svg>
