<svg width="33" height="33" viewBox="0 0 33 33" fill="none" xmlns="http://www.w3.org/2000/svg">
<g id="Icon / Phone">
<path id="Vector" d="M22.9167 28.7367C20.7117 28.7347 18.5411 28.1898 16.5967 27.15L15.9967 26.8167C11.851 24.5878 8.45225 21.189 6.22333 17.0434L5.89 16.4434C4.82309 14.4879 4.25951 12.2976 4.25 10.07V9.17668C4.24944 8.46596 4.53261 7.78442 5.03667 7.28335L7.29 5.03002C7.50884 4.80948 7.81775 4.70319 8.12595 4.74236C8.43415 4.78154 8.70664 4.96175 8.86333 5.23002L11.8633 10.3767C12.1667 10.9005 12.0791 11.563 11.65 11.99L9.13 14.51C8.92072 14.717 8.87196 15.0367 9.01 15.2967L9.47667 16.1767C11.1527 19.2812 13.7024 21.8263 16.81 23.4967L17.69 23.9767C17.95 24.1147 18.2697 24.0659 18.4767 23.8567L20.9967 21.3367C21.4236 20.9076 22.0861 20.82 22.61 21.1234L27.7567 24.1234C28.0249 24.28 28.2052 24.5526 28.2443 24.8607C28.2835 25.169 28.1772 25.4779 27.9567 25.6967L25.7033 27.95C25.2023 28.454 24.5207 28.7372 23.81 28.7367H22.9167Z" fill="#31871D"/>
</g>
</svg>
