<svg width="32" height="33" viewBox="0 0 32 33" fill="none" xmlns="http://www.w3.org/2000/svg">
<g id="Icon / Pin">
<path id="Vector" d="M16.0014 3.40234C10.6761 3.40234 6.34375 7.73474 6.34375 13.0599C6.34375 19.6687 14.9864 29.3707 15.3544 29.7805C15.7 30.1654 16.3034 30.1647 16.6485 29.7805C17.0164 29.3707 25.659 19.6687 25.659 13.0599C25.6589 7.73474 21.3266 3.40234 16.0014 3.40234ZM16.0014 17.919C13.3221 17.919 11.1424 15.7393 11.1424 13.0599C11.1424 10.3807 13.3222 8.20098 16.0014 8.20098C18.6806 8.20098 20.8604 10.3807 20.8604 13.06C20.8604 15.7393 18.6806 17.919 16.0014 17.919Z" fill="#E2090B"/>
</g>
</svg>
