<svg  viewBox="0 0 868 866" fill="none" xmlns="http://www.w3.org/2000/svg">
<rect width="867.333" height="866" rx="433" fill="white"/>
<path fill-rule="evenodd" clip-rule="evenodd" d="M167 266.333C167 247.924 181.924 233 200.333 233H667C685.409 233 700.333 247.924 700.333 266.333C700.333 284.743 685.409 299.667 667 299.667H200.333C181.924 299.667 167 284.743 167 266.333ZM167 433C167 414.59 181.924 399.667 200.333 399.667H667C685.409 399.667 700.333 414.59 700.333 433C700.333 451.409 685.409 466.333 667 466.333H200.333C181.924 466.333 167 451.409 167 433ZM400.333 599.667C400.333 581.257 415.257 566.333 433.667 566.333H667C685.409 566.333 700.333 581.257 700.333 599.667C700.333 618.076 685.409 633 667 633H433.667C415.257 633 400.333 618.076 400.333 599.667Z" fill="black"/>
</svg>
