<svg width="53" height="53" viewBox="0 0 53 53" fill="none" xmlns="http://www.w3.org/2000/svg">
<g id="mute-notification-svgrepo-com 1">
<path id="Vector" d="M12.5657 42.7923L15.7962 39.5263H39.3164V23.1967C39.3164 21.0346 38.7964 18.9967 37.8702 17.2004L40.2524 14.7902C41.7214 17.2461 42.5664 20.1267 42.5664 23.1967V39.5263H47.4414C47.8724 39.5263 48.2857 39.6984 48.5905 40.0046C48.8952 40.3108 49.0664 40.7262 49.0664 41.1593C49.0664 41.5924 48.8952 42.0077 48.5905 42.314C48.2857 42.6202 47.8724 42.7923 47.4414 42.7923H12.5657ZM7.98316 42.7923H5.19141C4.76043 42.7923 4.3471 42.6202 4.04236 42.314C3.73761 42.0077 3.56641 41.5924 3.56641 41.1593C3.56641 40.7262 3.73761 40.3108 4.04236 40.0046C4.3471 39.6984 4.76043 39.5263 5.19141 39.5263H10.0664V23.1967C10.0669 19.4325 11.3609 15.784 13.7296 12.868C16.0984 9.95209 19.3965 7.94763 23.0664 7.1936V6.86701C23.0664 6.00083 23.4088 5.17012 24.0183 4.55764C24.6278 3.94516 25.4545 3.60107 26.3164 3.60107C27.1784 3.60107 28.005 3.94516 28.6145 4.55764C29.224 5.17012 29.5664 6.00083 29.5664 6.86701V7.1936C32.919 7.88032 35.9698 9.61439 38.2829 12.148L35.9884 14.4668C34.2307 12.5 31.9205 11.1154 29.3631 10.4958C26.8057 9.8763 24.1215 10.051 21.665 10.9969C19.2085 11.9427 17.0953 13.6153 15.6047 15.7935C14.1141 17.9717 13.3162 20.5531 13.3164 23.1967V37.4002L7.98641 42.7923H7.98316ZM23.0664 46.0582H29.5664C29.5664 46.9244 29.224 47.7551 28.6145 48.3675C28.005 48.98 27.1784 49.3241 26.3164 49.3241C25.4545 49.3241 24.6278 48.98 24.0183 48.3675C23.4088 47.7551 23.0664 46.9244 23.0664 46.0582Z" fill="#E2090B"/>
<path id="Vector_2" d="M7.97041 44.1736C7.66524 44.4726 7.25537 44.6392 6.82914 44.6374C6.40291 44.6356 5.99444 44.4656 5.69178 44.164C5.38911 43.8624 5.21647 43.4534 5.21107 43.0251C5.20567 42.5968 5.36794 42.1836 5.66291 41.8744L41.4129 5.71723C41.7181 5.41821 42.1279 5.25164 42.5542 5.25343C42.9804 5.25522 43.3889 5.42523 43.6915 5.72681C43.9942 6.0284 44.1668 6.43741 44.1722 6.86569C44.1776 7.29398 44.0154 7.70726 43.7204 8.01645L7.97041 44.1736Z" fill="#E2090B"/>
</g>
</svg>
