<svg width="469" height="120" viewBox="0 0 469 120" fill="none" xmlns="http://www.w3.org/2000/svg">
<path d="M0.984375 0.54541H261.768V119.761H0.984375V0.54541Z" fill="white"/>
<path d="M45.8125 85.9044V86.9044H46.8125H51.9285H52.9285V85.9044V71.3821C53.6265 71.4336 54.2921 71.4805 54.9252 71.5227L54.9367 71.5235L54.9483 71.524C55.9329 71.5668 56.9791 71.5881 58.0866 71.5881C64.8842 71.5881 70.0893 70.2043 73.491 67.237C76.9182 64.2659 78.5715 60.0016 78.5715 54.6086C78.5715 48.9052 76.9219 44.5343 73.4311 41.7354C70.0233 38.9652 65.0964 37.6607 58.8129 37.6607C56.6122 37.6607 54.5131 37.7675 52.5163 37.9822L52.5152 37.9823C50.5497 38.1959 48.5848 38.495 46.6205 38.8793L45.8125 39.0374V39.8607V85.9044ZM68.5168 46.4276L68.5168 46.4276L68.5246 46.4343C70.4273 48.0471 71.4871 50.7187 71.4871 54.7033C71.4871 58.4711 70.4212 61.0966 68.4582 62.7856C66.4756 64.4705 63.1266 65.4195 58.1813 65.4195C57.0608 65.4195 56.0047 65.3988 55.0128 65.3577C54.3293 65.3138 53.6346 65.2493 52.9285 65.1639V44.2528C53.7442 44.135 54.5719 44.0456 55.4116 43.9845L55.4198 43.9839L55.428 43.9832C56.5733 43.8809 57.8171 43.8292 59.1603 43.8292C63.5303 43.8292 66.5858 44.7565 68.5168 46.4276ZM96.5413 84.909L96.546 84.9117C99.6249 86.652 103.2 87.5044 107.238 87.5044C111.237 87.5044 114.79 86.6511 117.868 84.9117L117.87 84.9106C121.004 83.1291 123.41 80.3674 125.105 76.6912L125.106 76.6891C126.808 72.9767 127.629 68.2412 127.629 62.5352C127.629 56.8301 126.808 52.1043 125.105 48.4117C123.412 44.7177 121.018 41.9538 117.902 40.1916C114.823 38.4299 111.258 37.5659 107.238 37.5659C103.218 37.5659 99.6431 38.4302 96.5449 40.1908C93.428 41.9529 91.0334 44.7171 89.3399 48.4116C87.6375 52.1041 86.8167 56.83 86.8167 62.5352C86.8167 68.2412 87.6378 72.9767 89.3393 76.6891L89.3403 76.6912C91.0343 80.3654 93.4283 83.127 96.5413 84.909ZM118.631 73.7103L118.629 73.7162C117.533 76.4057 116.016 78.2638 114.118 79.3913C112.19 80.5287 109.908 81.1148 107.238 81.1148C104.55 81.1148 102.248 80.5191 100.299 79.3616C98.4227 78.2356 96.9036 76.3675 95.7854 73.6535C94.6954 70.9361 94.1222 67.1962 94.1222 62.3773C94.1222 57.6648 94.6951 53.9996 95.7841 51.3253C96.9013 48.6333 98.4185 46.7869 100.292 45.681C102.243 44.5421 104.547 43.9555 107.238 43.9555C109.906 43.9555 112.186 44.5511 114.114 45.7078L114.117 45.7101C116.011 46.835 117.529 48.7105 118.627 51.4442L118.629 51.45C119.739 54.166 120.323 57.8947 120.323 62.6931C120.323 67.3839 119.74 71.0374 118.631 73.7103ZM138.401 85.9044V86.9044H139.401H144.517H145.517V85.9044V39.1659V38.1659H144.517H139.401H138.401V39.1659V85.9044ZM158.358 85.9044V86.9044H159.358H164.222H165.222V85.9044V50.3066L188.966 86.4534L189.262 86.9044H189.801H195.075H196.075V85.9044V39.1659V38.1659H195.075H190.244H189.244V39.1659V74.7692L165.468 38.6165L165.171 38.1659H164.632H159.358H158.358V39.1659V85.9044ZM219.521 85.9044V86.9044H220.521H225.637H226.637V85.9044V44.6187H241.206H242.206V43.6187V39.1659V38.1659H241.206H204.952H203.952V39.1659V43.6187V44.6187H204.952H219.521V85.9044Z" fill="#E2090B" stroke="#E2090B" stroke-width="2"/>
<path d="M273.11 85.5663L272.63 86.904H274.051H279.167H279.874L280.11 86.2373L285.222 71.7771H303.555L308.667 86.2373L308.903 86.904H309.61H314.821H316.242L315.762 85.5663L298.993 38.8278L298.755 38.1655H298.052H290.82H290.116L289.879 38.8278L273.11 85.5663ZM294.388 45.848L301.318 65.4507H287.458L294.388 45.848ZM331.399 86.1752L331.604 86.904H332.361H339.088H339.841L340.049 86.1804L350.922 48.3712L361.685 86.1778L361.892 86.904H362.647H369.342H370.099L370.304 86.1752L383.473 39.4367L383.831 38.1655H382.51H377.552H376.792L376.589 38.8982L365.842 77.6304L354.956 38.895L354.751 38.1655H353.994H347.962H347.207L347 38.8918L336.036 77.4189L325.43 38.9001L325.228 38.1655H324.466H319.192H317.872L318.23 39.4367L331.399 86.1752ZM384.757 85.5663L384.277 86.904H385.699H390.815H391.522L391.757 86.2373L396.869 71.7771H415.203L420.315 86.2373L420.551 86.904H421.258H426.468H427.89L427.41 85.5663L410.641 38.8278L410.403 38.1655H409.699H402.468H401.764L401.526 38.8278L384.757 85.5663ZM406.036 45.848L412.966 65.4507H399.106L406.036 45.848ZM442.264 85.904V86.904H443.264H448.412H449.412V85.904V65.3836L465.896 39.7058L466.885 38.1655H465.054H459.749H459.204L458.908 38.6235L445.922 58.7601L432.764 38.6186L432.468 38.1655H431.927H426.274H424.424L425.437 39.7132L442.264 65.4224V85.904Z" fill="white" stroke="white" stroke-width="2"/>
</svg>
