<svg width="53" height="54" viewBox="0 0 53 54" fill="none" xmlns="http://www.w3.org/2000/svg">
<g id="puzzle-piece-svgrepo-com 1" clip-path="url(#clip0_139_1089)">
<g id="Group">
<path id="Vector" d="M44.5071 24.1338C43.501 24.1338 42.5647 24.4023 41.7331 24.7937V19.4465C41.7331 15.0018 38.1863 11.3853 33.8255 11.3853H28.5807C28.9647 10.541 29.2282 9.58667 29.2282 8.56124C29.2283 4.02591 25.607 0.334961 21.1572 0.334961C16.7059 0.334961 13.0846 4.02591 13.0846 8.56124C13.0846 9.58667 13.3481 10.541 13.7305 11.3853H8.4873C4.12652 11.3853 0.578125 15.0019 0.578125 19.4465L0.582898 21.9131H0.578125L0.586047 25.41C0.586047 27.794 1.45725 29.2222 1.8699 29.7641C3.11089 31.3994 4.62163 31.6452 5.41352 31.6452C6.62749 31.6452 7.76377 31.1325 8.7857 30.1232L8.87771 30.0796L9.03168 29.8579C9.17295 29.7173 9.67437 29.2902 10.4552 29.2886C12.1151 29.2886 13.4671 30.665 13.4671 32.3601C13.4671 34.052 12.115 35.43 10.4536 35.43C9.67437 35.43 9.17295 35.003 9.03168 34.8606L8.87771 34.639L8.7857 34.5953C7.76367 33.586 6.62749 33.0733 5.41352 33.0733C4.62163 33.075 3.11089 33.3192 1.8699 34.9544C1.45725 35.4979 0.586047 36.9244 0.586047 39.3086L0.578125 42.8055H0.582898L0.578125 45.2673C0.578125 49.7184 4.12652 53.335 8.4873 53.335H14.0289V53.3284L14.3383 53.3268C16.6759 53.3268 18.0787 52.4404 18.6103 52.0182C20.2147 50.7534 20.4559 49.2136 20.4559 48.4065C20.4559 47.1692 19.9529 46.011 18.9642 44.9694L18.9197 44.8757L18.7039 44.7187C18.5642 44.5747 18.1437 44.0637 18.1437 43.2679C18.1437 41.576 19.4958 40.198 21.1572 40.198C22.8172 40.198 24.1692 41.5761 24.1692 43.2679C24.1692 44.0637 23.7486 44.5747 23.6106 44.7187L23.3948 44.8757L23.3503 44.9694C22.36 46.0111 21.857 47.1692 21.857 48.4065C21.857 49.2136 22.0966 50.7534 23.7026 52.0182C24.2358 52.4404 25.6354 53.3268 27.9746 53.3268L29.7012 53.3316V53.335H33.8255C38.1864 53.335 41.7331 49.7183 41.7331 45.2737V39.928C42.5647 40.3179 43.5009 40.5879 44.5071 40.5879C48.9568 40.5879 52.5781 36.897 52.5781 32.3601C52.5781 27.8249 48.9568 24.1338 44.5071 24.1338ZM44.5071 37.2253C42.5742 37.2253 40.7016 34.9415 40.7016 34.9415C40.362 34.6099 40.0525 34.4433 39.7622 34.4433C39.4733 34.4433 39.2067 34.6098 38.956 34.9415C38.956 34.9415 38.4354 35.5513 38.4354 36.9407V45.2737C38.4354 47.8681 36.3724 49.9724 33.8254 49.9724H31.4069L27.9744 49.9643C26.4065 49.9643 25.7209 49.3561 25.7209 49.3561C25.3449 49.0602 25.1559 48.748 25.1559 48.4067C25.1559 48.0686 25.3447 47.7031 25.7209 47.31C25.7209 47.31 27.4697 45.8721 27.4697 43.2681C27.4697 39.7161 24.6418 36.8339 21.157 36.8339C17.669 36.8339 14.8443 39.7162 14.8443 43.2681C14.8443 45.8721 16.5931 47.31 16.5931 47.31C16.9677 47.7031 17.1549 48.0686 17.1549 48.4067C17.1549 48.748 16.9676 49.0602 16.5931 49.3561C16.5931 49.3561 15.9059 49.9643 14.3381 49.9643L10.9056 49.9724H8.4873C5.94184 49.9724 3.87891 47.8681 3.87891 45.2737L3.88845 40.2839H3.88368L3.8853 39.3086C3.8853 37.7122 4.48198 37.0102 4.48198 37.0102C4.77235 36.6269 5.07866 36.4377 5.41189 36.4377C5.74512 36.4377 6.10384 36.6269 6.48937 37.0102C6.48937 37.0102 7.90017 38.7942 10.4551 38.7942C13.94 38.7926 16.7678 35.9119 16.7678 32.3601C16.7662 28.805 13.9399 25.926 10.4551 25.926C7.90017 25.926 6.48937 27.7084 6.48937 27.7084C6.10373 28.0902 5.74512 28.281 5.41189 28.281C5.07866 28.281 4.77235 28.0917 4.48198 27.7084C4.48198 27.7084 3.8853 27.0065 3.8853 25.4101V25.2904H3.88845L3.87891 19.4465C3.87891 16.8521 5.94195 14.7495 8.4873 14.7495H16.6631C18.0263 14.7495 18.6246 14.219 18.6246 14.219C19.2768 13.7078 19.2768 13.1289 18.6246 12.4398C18.6246 12.4398 16.3838 10.5311 16.3838 8.56114C16.3838 5.8746 18.5214 3.69756 21.1572 3.69756C23.7916 3.69756 25.929 5.8746 25.929 8.56114C25.929 10.5311 23.6899 12.4398 23.6899 12.4398C23.036 13.1288 23.036 13.7078 23.6899 14.219C23.6899 14.219 24.2866 14.7495 25.6481 14.7495H33.8255C36.3725 14.7495 38.4355 16.8522 38.4355 19.4465V27.7812C38.4355 29.1706 38.9561 29.7787 38.9561 29.7787C39.2068 30.112 39.4734 30.277 39.7623 30.277C40.0526 30.277 40.3621 30.112 40.7017 29.7787C40.7017 29.7787 42.5743 27.4965 44.5072 27.4965C47.1415 27.4965 49.2774 29.6752 49.2774 32.3601C49.2773 35.0483 47.1414 37.2253 44.5071 37.2253Z" fill="#31871D"/>
</g>
</g>
<defs>
<clipPath id="clip0_139_1089">
<rect width="52" height="53" fill="white" transform="translate(0.578125 0.334961)"/>
</clipPath>
</defs>
</svg>
