<svg width="53" height="53" viewBox="0 0 53 53" fill="none" xmlns="http://www.w3.org/2000/svg">
<g id="real-estate-price-svgrepo-com 1" clip-path="url(#clip0_139_1103)">
<g id="Group">
<g id="Group_2">
<path id="Vector" d="M33.9698 34.248C31.1648 34.248 28.8828 36.5301 28.8828 39.335C28.8828 42.1399 31.1648 44.4219 33.9698 44.4219C36.7747 44.4219 39.0567 42.1399 39.0567 39.335C39.0567 36.5301 36.7747 34.248 33.9698 34.248ZM33.9698 41.0307C33.0348 41.0307 32.2741 40.27 32.2741 39.335C32.2741 38.4 33.0348 37.6393 33.9698 37.6393C34.9047 37.6393 35.6654 38.4 35.6654 39.335C35.6654 40.27 34.9047 41.0307 33.9698 41.0307Z" fill="#31871D"/>
</g>
</g>
<g id="Group_3">
<g id="Group_4">
<path id="Vector_2" d="M18.1455 20.6826C15.3406 20.6826 13.0586 22.9646 13.0586 25.7696C13.0586 28.5745 15.3406 30.8565 18.1455 30.8565C20.9505 30.8565 23.2325 28.5745 23.2325 25.7696C23.2324 22.9646 20.9504 20.6826 18.1455 20.6826ZM18.1455 27.4653C17.2106 27.4653 16.4499 26.7045 16.4499 25.7696C16.4499 24.8346 17.2106 24.0739 18.1455 24.0739C19.0805 24.0739 19.8412 24.8346 19.8412 25.7696C19.8411 26.7045 19.0805 27.4653 18.1455 27.4653Z" fill="#31871D"/>
</g>
</g>
<g id="Group_5">
<g id="Group_6">
<path id="Vector_3" d="M35.012 21.04C34.273 20.4649 33.2077 20.5981 32.6326 21.3373L16.8065 41.6852C16.2315 42.4244 16.3647 43.4898 17.1039 44.0646C17.8427 44.6396 18.9081 44.5067 19.4833 43.7673L35.3093 23.4195C35.8844 22.6803 35.7512 21.6149 35.012 21.04Z" fill="#31871D"/>
</g>
</g>
<g id="Group_7">
<g id="Group_8">
<path id="Vector_4" d="M51.562 26.2664L46.4063 21.1108V9.94357C46.4063 9.00717 45.6472 8.24789 44.7107 8.24789H37.9281C36.9917 8.24789 36.2324 9.00707 36.2324 9.94357V10.9369L27.2575 1.9619C26.5954 1.29981 25.5217 1.29981 24.8595 1.9619C24.2422 2.57929 1.45792 25.3635 0.555233 26.2663C-0.106953 26.9283 -0.106953 28.0021 0.555233 28.6643C1.21732 29.3263 2.29103 29.3263 2.95322 28.6643L5.71084 25.9068V49.5088C5.71084 50.4452 6.47002 51.2045 7.40652 51.2045H44.7108C45.6472 51.2045 46.4065 50.4453 46.4065 49.5088V25.9067L49.1641 28.6644C49.8263 29.3265 50.8999 29.3265 51.5621 28.6644C52.2241 28.0023 52.2241 26.9285 51.562 26.2664ZM43.0151 47.8131H9.10211V22.5155L26.0586 5.55893C26.9403 6.44059 42.1407 21.641 43.0152 22.5155V47.8131H43.0151ZM43.0151 17.7195L39.6238 14.3282V11.6393H43.0151V17.7195Z" fill="#31871D"/>
</g>
</g>
</g>
<defs>
<clipPath id="clip0_139_1103">
<rect width="52" height="52" fill="white" transform="translate(0.0585938 0.334961)"/>
</clipPath>
</defs>
</svg>
