<svg width="32" height="33" viewBox="0 0 32 33" fill="none" xmlns="http://www.w3.org/2000/svg">
<g id="tick-circle-svgrepo-com 1">
<path id="Vector" d="M16.1432 3.45801C13.5886 3.45801 11.0913 4.23999 8.96712 5.70508C6.84298 7.17017 5.18742 9.25255 4.20979 11.6889C3.23216 14.1252 2.97637 16.8061 3.47476 19.3925C3.97315 21.979 5.20334 24.3547 7.00977 26.2194C8.8162 28.0841 11.1177 29.354 13.6233 29.8685C16.1289 30.3829 18.726 30.1189 21.0862 29.1097C23.4464 28.1006 25.4637 26.3916 26.883 24.1989C28.3023 22.0063 29.0599 19.4284 29.0599 16.7913C29.0599 15.0404 28.7258 13.3066 28.0767 11.6889C27.4276 10.0712 26.4761 8.60137 25.2767 7.36325C24.0773 6.12514 22.6534 5.14301 21.0862 4.47295C19.5191 3.80288 17.8395 3.45801 16.1432 3.45801ZM23.4747 14.4407L15.7247 21.774C15.4794 22.0063 15.1566 22.1317 14.8238 22.1243C14.4909 22.1168 14.1737 21.977 13.9384 21.734L10.0634 17.734C9.93999 17.611 9.84159 17.4639 9.7739 17.3012C9.7062 17.1385 9.67057 16.9636 9.66908 16.7865C9.66759 16.6095 9.70027 16.4339 9.76521 16.2701C9.83016 16.1062 9.92607 15.9573 10.0473 15.8321C10.1686 15.707 10.3128 15.608 10.4716 15.5409C10.6303 15.4739 10.8004 15.4401 10.9719 15.4417C11.1434 15.4432 11.3129 15.48 11.4705 15.5499C11.6281 15.6198 11.7706 15.7213 11.8898 15.8487L14.8903 18.946L21.7284 12.4753C21.9809 12.2363 22.315 12.1106 22.6573 12.1258C22.9996 12.1411 23.3219 12.2961 23.5535 12.5567C23.7851 12.8173 23.9069 13.1622 23.8921 13.5155C23.8773 13.8688 23.7272 14.2016 23.4747 14.4407Z" fill="#31871D"/>
</g>
</svg>
