<svg width="465" height="120" viewBox="0 0 465 120" fill="none" xmlns="http://www.w3.org/2000/svg">
<path d="M0.0195312 0.21875H260.803V119.434H0.0195312V0.21875Z" fill="white"/>
<path d="M45.8477 85.5768V39.5331C47.7846 39.1541 49.7215 38.8594 51.6584 38.6488C53.6163 38.4383 55.6796 38.333 57.8481 38.333C64.0167 38.333 68.68 39.6173 71.838 42.1858C75.0171 44.7332 76.6066 48.765 76.6066 54.2809C76.6066 59.4601 75.0276 63.4181 71.8696 66.155C68.7327 68.892 63.8167 70.2604 57.1217 70.2604C56.027 70.2604 54.9953 70.2394 54.0269 70.1973C53.0795 70.1341 52.0584 70.0604 50.9636 69.9762V85.5768H45.8477ZM57.2165 66.0919C62.2482 66.0919 65.8905 65.1339 68.1432 63.2181C70.3959 61.2812 71.5222 58.3337 71.5222 54.3757C71.5222 50.2282 70.4169 47.2175 68.2063 45.3438C66.0168 43.449 62.6798 42.5016 58.1955 42.5016C56.827 42.5016 55.5533 42.5542 54.3743 42.6595C53.2163 42.7437 52.0794 42.8805 50.9636 43.07V65.7129C51.9952 65.8603 53.0058 65.9656 53.9953 66.0287C55.0059 66.0708 56.0796 66.0919 57.2165 66.0919Z" fill="#030303"/>
<path d="M106.274 86.1768C102.379 86.1768 98.9786 85.3557 96.0732 83.7135C93.1679 82.0503 90.9046 79.4608 89.2835 75.9448C87.6624 72.4079 86.8519 67.8288 86.8519 62.2075C86.8519 56.5863 87.6624 52.0177 89.2835 48.5018C90.9046 44.9648 93.1679 42.3753 96.0732 40.7331C98.9997 39.0699 102.4 38.2383 106.274 38.2383C110.147 38.2383 113.537 39.0699 116.442 40.7331C119.348 42.3753 121.611 44.9648 123.232 48.5018C124.853 52.0177 125.664 56.5863 125.664 62.2075C125.664 67.8288 124.853 72.4079 123.232 75.9448C121.611 79.4608 119.337 82.0503 116.411 83.7135C113.505 85.3557 110.126 86.1768 106.274 86.1768ZM106.274 81.7872C109.095 81.7872 111.558 81.1661 113.663 79.9239C115.79 78.6607 117.432 76.608 118.59 73.7658C119.769 70.9236 120.358 67.1235 120.358 62.3654C120.358 57.5021 119.769 53.6283 118.59 50.744C117.432 47.8597 115.79 45.7859 113.663 44.5227C111.558 43.2595 109.095 42.6279 106.274 42.6279C103.431 42.6279 100.947 43.249 98.8207 44.4911C96.7154 45.7333 95.0732 47.7755 93.8942 50.6177C92.7363 53.4599 92.1573 57.2705 92.1573 62.0496C92.1573 66.934 92.7363 70.8184 93.8942 73.7027C95.0732 76.5659 96.7154 78.6292 98.8207 79.8924C100.947 81.1556 103.431 81.7872 106.274 81.7872Z" fill="#030303"/>
<path d="M138.436 85.5768V38.8383H143.552V85.5768H138.436Z" fill="#030303"/>
<path d="M158.393 85.5768V38.8383H163.667L190.542 79.7029H189.279V38.8383H194.11V85.5768H188.837L161.994 44.7122H163.257V85.5768H158.393Z" fill="#030303"/>
<path d="M219.556 85.5768V43.2911H203.987V38.8383H240.241V43.2911H224.672V85.5768H219.556Z" fill="#030303"/>
<path d="M273.086 85.5783L289.855 38.8398H297.087L313.856 85.5783H308.645L292.981 41.2715H293.866L278.202 85.5783H273.086ZM281.865 70.4515L283.065 66.125H303.845L305.045 70.4515H281.865Z" fill="white"/>
<path d="M331.396 85.5783L318.228 38.8398H323.501L335.691 83.115H334.397L346.997 38.8398H353.029L365.471 83.115H364.303L376.588 38.8398H381.546L368.377 85.5783H361.682L349.302 42.0926H350.629L338.123 85.5783H331.396Z" fill="white"/>
<path d="M384.734 85.5783L401.503 38.8398H408.735L425.504 85.5783H420.293L404.629 41.2715H405.513L389.85 85.5783H384.734ZM393.513 70.4515L394.713 66.125H415.493L416.693 70.4515H393.513Z" fill="white"/>
<path d="M442.299 85.5783V62.6512L443.436 66.5355L425.309 38.8398H430.962L445.836 61.609H444.099L458.784 38.8398H464.089L446.31 66.5355L447.447 62.7143V85.5783H442.299Z" fill="white"/>
</svg>
